<svg xmlns="http://www.w3.org/2000/svg" viewBox="0 0 810 810">
  <path fill="#111111" d="M 0 405 C 0 460.078125 10.800781 512.460938 32.398438 562.140625 C 54 611.820312 82.621094 655.019531 118.261719 691.738281 C 153.898438 728.460938 197.101562 757.351562 247.859375 778.410156 C 298.621094 799.46875 351 810 405 810 C 459 810 511.378906 799.46875 562.140625 778.410156 C 612.898438 757.351562 656.101562 728.460938 691.738281 691.738281 C 727.378906 655.019531 756 611.820312 777.601562 562.140625 C 799.199219 512.460938 810 460.078125 810 405 C 810 349.921875 799.199219 297.539062 777.601562 247.859375 C 756 198.179688 727.378906 154.980469 691.738281 118.261719 C 656.101562 81.539062 613.171875 52.921875 562.949219 32.398438 C 512.730469 11.878906 460.078125 1.082031 405 0 C 349.921875 0 297.539062 10.800781 247.859375 32.398438 C 198.179688 54 154.980469 82.621094 118.261719 118.261719 C 81.539062 153.898438 52.921875 197.101562 32.398438 247.859375 C 11.878906 298.621094 1.078125 351 0 405 Z M 106.921875 349.921875 C 115.558594 303.480469 133.921875 261.359375 162 223.558594 C 190.078125 185.761719 225.449219 156.058594 268.109375 134.460938 C 310.769531 112.859375 356.398438 101.789062 405 101.25 C 471.421875 101.25 530.550781 120.691406 582.390625 159.570312 C 634.230469 198.449219 670.679688 248.398438 691.738281 309.421875 C 684.179688 333.179688 672.300781 353.160156 656.101562 369.359375 C 636.121094 388.800781 613.171875 402.03125 587.25 409.050781 C 561.328125 416.070312 535.410156 416.070312 509.488281 409.050781 C 483.570312 402.03125 460.621094 388.800781 440.640625 369.359375 C 410.941406 339.660156 376.378906 318.871094 336.960938 306.988281 C 297.539062 295.109375 257.308594 292.679688 216.269531 299.699219 C 175.230469 306.71875 138.78125 323.460938 106.921875 349.921875 Z M 118.261719 501.390625 C 125.820312 477.628906 137.96875 457.378906 154.710938 440.640625 C 184.410156 411.480469 220.320312 396.898438 262.441406 396.898438 C 304.558594 396.898438 340.199219 411.480469 369.359375 440.640625 C 399.058594 470.339844 433.890625 491.398438 473.851562 503.820312 C 513.808594 516.238281 553.769531 518.398438 593.730469 510.300781 C 633.691406 502.199219 670.140625 485.730469 703.078125 460.890625 C 694.441406 507.328125 676.078125 549.449219 648 587.25 C 619.917969 625.050781 584.550781 654.75 541.890625 676.351562 C 499.230469 697.949219 453.601562 708.75 405 708.75 C 338.578125 708.75 279.449219 689.578125 227.609375 651.238281 C 175.769531 612.898438 139.320312 562.949219 118.261719 501.390625 Z"/>
</svg>
